<?xml version="1.0" encoding="utf-8"?>
<!-- Generator: Adobe Illustrator 27.5.0, SVG Export Plug-In . SVG Version: 6.00 Build 0)  -->
<svg version="1.1" xmlns="http://www.w3.org/2000/svg" xmlns:xlink="http://www.w3.org/1999/xlink" x="0px" y="0px"
	 viewBox="0 0 500 500" style="enable-background:new 0 0 500 500;" xml:space="preserve">
<g id="BACKGROUND">
	<rect style="fill:#FFFFFF;" width="500" height="500"/>
</g>
<g id="OBJECTS">
	<g>
		<circle style="fill:#B9DEFE;" cx="250" cy="208.629" r="138.16"/>
		<g>
			<rect x="147.733" y="262.096" style="fill:#442325;" width="9.311" height="26.121"/>
			<path style="fill:#C0C040;" d="M176.424,242.264c-2.671-16.691-15.022-61.089-24.035-61.089
				c-9.013,0-21.364,44.398-24.035,61.089c-2.671,16.691,0.334,28.708,24.035,28.708
				C176.09,270.972,179.094,258.955,176.424,242.264z"/>
			<g>
				<path style="fill:#878E28;" d="M173.776,255.706c-2.761,0.764-6.626-0.071-7.819-2.982c-0.38-0.927-1.677-1.294-2.252-0.294
					c-1.615,2.809-4.731,4.568-7.985,4.377c-3.166-0.185-5.941-2.304-7.257-5.129c-0.324-0.695-1.389-0.766-1.882-0.242
					c-2.957,3.143-6.609,6.847-11.353,5.936c-3.309-0.636-5.653-2.736-7.661-5.196c0.032,1.124,0.12,2.208,0.267,3.252
					c1.955,2.029,4.328,3.588,7.126,4.135c5.005,0.978,8.892-1.964,12.207-5.292c1.887,2.856,5.11,4.754,8.551,4.966
					c3.422,0.211,6.778-1.38,8.972-3.961c2.046,2.568,5.572,3.581,8.887,3.028c1.062-0.177,2.077-0.552,3.033-1.051
					c0.236-1.05,0.4-2.146,0.498-3.289C176.109,254.735,175.006,255.366,173.776,255.706z"/>
				<path style="fill:#878E28;" d="M141.497,215.931c0.591-0.286,1.137-0.66,1.637-1.086c0.251-0.213,0.467-0.461,0.714-0.679
					c0.066-0.058,0.135-0.118,0.207-0.173c0.042,0.053,0.082,0.108,0.114,0.168c0.581,1.22,1.729,2.363,2.765,3.201
					c2.151,1.74,4.919,2.821,7.715,2.535c2.474-0.253,4.802-1.398,6.407-3.256c2.201,2.764,6.331,3.723,9.689,2.751
					c0.116-0.034,0.224-0.081,0.338-0.118c-0.221-0.783-0.445-1.569-0.674-2.356c-3.049,1.063-6.895,0.026-8.241-3.082
					c-0.359-0.829-1.687-0.74-2.074,0c-1.417,2.71-4.564,4.166-7.568,3.656c-1.531-0.26-2.985-0.968-4.178-1.957
					c-0.601-0.498-1.159-1.07-1.631-1.693c-0.42-0.555-0.727-1.209-1.259-1.668c-1.371-1.184-2.657-0.055-3.676,0.923
					c-1.091,1.048-2.593,1.609-4.1,1.605c-0.879-0.002-1.721-0.199-2.488-0.563c-0.19,0.627-0.377,1.254-0.561,1.881
					C136.775,217.076,139.344,216.973,141.497,215.931z"/>
				<path style="fill:#878E28;" d="M134.884,237.379c1.989,0.883,4.002,0.514,5.86-0.485c1.436-0.773,2.702-1.862,4.175-2.55
					c1.196,3.395,4.293,6.128,7.883,6.666c3.611,0.541,7.219-0.98,9.472-3.763c3.894,2.841,9.077,3.834,13.722,2.55
					c-0.141-0.762-0.298-1.565-0.467-2.399c-4.344,1.263-9.257,0.192-12.69-2.783c-0.615-0.533-1.484-0.334-1.885,0.341
					c-1.578,2.652-4.851,4.248-7.916,3.693c-3.152-0.57-5.58-3.115-6.25-6.203c-0.137-0.633-0.916-0.892-1.467-0.738
					c-1.736,0.487-3.172,1.562-4.638,2.564c-1.438,0.984-3.05,1.904-4.825,1.228c-1.825-0.696-3.141-2.451-4.23-3.987
					c-0.286-0.403-0.546-0.824-0.796-1.253c-0.215,0.903-0.421,1.786-0.617,2.647C131.429,234.672,132.887,236.492,134.884,237.379z
					"/>
				<path style="fill:#878E28;" d="M144.26,199.88c2.499,0.492,5.183-0.398,6.887-2.249c2.471,3.629,7.202,5.277,11.507,4.296
					c0.874-0.199,1.727-0.504,2.544-0.887c-0.282-0.754-0.566-1.497-0.852-2.227c-0.926,0.454-1.914,0.778-2.928,0.942
					c-3.749,0.604-7.608-1.352-9.194-4.816c-0.34-0.743-1.598-0.728-1.943,0c-1.014,2.138-3.494,3.384-5.824,2.82
					c-1.129-0.274-2.082-0.982-2.852-1.835c-0.274,0.651-0.546,1.317-0.817,1.994C141.742,198.876,142.912,199.614,144.26,199.88z"
					/>
			</g>
		</g>
		<g>
			<rect x="346.546" y="261.998" style="fill:#442325;" width="9.247" height="25.94"/>
			<path style="fill:#878E28;" d="M375.039,242.303c-2.652-16.576-14.918-60.667-23.869-60.667s-21.217,44.092-23.869,60.667
				c-2.652,16.576,0.332,28.51,23.869,28.51S377.691,258.879,375.039,242.303z"/>
			<g>
				<path style="fill:#C0C040;" d="M372.409,255.653c-2.742,0.758-6.58-0.071-7.765-2.961c-0.378-0.921-1.665-1.285-2.236-0.292
					c-1.604,2.789-4.698,4.536-7.93,4.347c-3.144-0.184-5.9-2.289-7.207-5.093c-0.322-0.691-1.38-0.76-1.869-0.241
					c-2.937,3.121-6.564,6.8-11.274,5.895c-3.286-0.631-5.614-2.717-7.608-5.16c0.032,1.116,0.119,2.193,0.266,3.23
					c1.941,2.015,4.298,3.563,7.077,4.106c4.971,0.971,8.83-1.95,12.123-5.256c1.874,2.837,5.075,4.721,8.492,4.932
					c3.398,0.21,6.731-1.371,8.91-3.934c2.031,2.551,5.533,3.556,8.825,3.007c1.055-0.176,2.063-0.548,3.012-1.044
					c0.234-1.042,0.398-2.132,0.495-3.266C374.727,254.689,373.631,255.315,372.409,255.653z"/>
				<path style="fill:#C0C040;" d="M340.353,216.152c0.587-0.284,1.129-0.656,1.626-1.078c0.249-0.212,0.464-0.458,0.709-0.674
					c0.065-0.058,0.134-0.118,0.205-0.172c0.042,0.053,0.081,0.107,0.114,0.167c0.577,1.211,1.717,2.346,2.746,3.178
					c2.136,1.728,4.885,2.802,7.661,2.517c2.457-0.252,4.769-1.388,6.363-3.234c2.185,2.745,6.288,3.697,9.622,2.732
					c0.115-0.033,0.223-0.08,0.336-0.118c-0.219-0.777-0.442-1.558-0.67-2.34c-3.028,1.056-6.848,0.025-8.184-3.061
					c-0.356-0.823-1.676-0.735-2.06,0c-1.407,2.691-4.533,4.137-7.516,3.631c-1.521-0.258-2.964-0.962-4.149-1.943
					c-0.597-0.494-1.151-1.063-1.619-1.681c-0.417-0.551-0.722-1.201-1.25-1.657c-1.361-1.175-2.639-0.055-3.65,0.917
					c-1.083,1.04-2.576,1.598-4.072,1.594c-0.873-0.002-1.709-0.198-2.471-0.559c-0.188,0.623-0.374,1.246-0.557,1.868
					C335.664,217.289,338.215,217.187,340.353,216.152z"/>
				<path style="fill:#C0C040;" d="M333.786,237.452c1.976,0.877,3.975,0.511,5.82-0.481c1.426-0.767,2.684-1.849,4.146-2.532
					c1.188,3.372,4.263,6.086,7.829,6.619c3.586,0.537,7.169-0.973,9.407-3.737c3.867,2.822,9.014,3.807,13.627,2.533
					c-0.14-0.756-0.295-1.554-0.463-2.383c-4.314,1.255-9.193,0.191-12.602-2.764c-0.611-0.529-1.474-0.332-1.872,0.338
					c-1.567,2.633-4.818,4.219-7.862,3.668c-3.13-0.566-5.541-3.094-6.206-6.16c-0.136-0.628-0.91-0.886-1.457-0.732
					c-1.724,0.484-3.15,1.551-4.606,2.547c-1.428,0.977-3.029,1.891-4.791,1.219c-1.812-0.691-3.12-2.434-4.201-3.959
					c-0.284-0.4-0.542-0.819-0.791-1.245c-0.214,0.896-0.418,1.773-0.612,2.629C330.354,234.764,331.802,236.572,333.786,237.452z"
					/>
				<path style="fill:#C0C040;" d="M343.097,200.211c2.482,0.489,5.147-0.395,6.839-2.234c2.454,3.604,7.153,5.24,11.428,4.267
					c0.868-0.198,1.715-0.5,2.526-0.881c-0.28-0.749-0.562-1.486-0.846-2.211c-0.919,0.451-1.901,0.773-2.908,0.935
					c-3.724,0.6-7.555-1.343-9.13-4.783c-0.338-0.738-1.586-0.723-1.929,0c-1.007,2.123-3.47,3.361-5.784,2.8
					c-1.122-0.272-2.068-0.976-2.832-1.823c-0.272,0.646-0.542,1.308-0.811,1.98C340.596,199.215,341.758,199.948,343.097,200.211z"
					/>
			</g>
		</g>
		<g>
			<rect x="178.528" y="253.091" style="fill:#442325;" width="12.155" height="34.099"/>
			<path style="fill:#878E28;" d="M215.981,227.202c-3.486-21.789-19.61-79.748-31.376-79.748c-11.766,0-27.89,57.959-31.376,79.748
				c-3.486,21.789,0.436,37.477,31.376,37.477S219.468,248.991,215.981,227.202z"/>
			<g>
				<path style="fill:#C0C040;" d="M212.524,244.75c-3.604,0.997-8.65-0.093-10.207-3.892c-0.496-1.211-2.189-1.689-2.939-0.384
					c-2.108,3.667-6.176,5.963-10.424,5.714c-4.132-0.242-7.756-3.008-9.473-6.695c-0.423-0.908-1.814-1-2.456-0.317
					c-3.86,4.103-8.628,8.938-14.82,7.749c-4.319-0.83-7.38-3.572-10.001-6.783c0.042,1.467,0.157,2.882,0.349,4.245
					c2.552,2.649,5.65,4.684,9.303,5.397c6.534,1.276,11.607-2.563,15.935-6.909c2.463,3.729,6.671,6.206,11.163,6.483
					c4.467,0.275,8.848-1.802,11.712-5.171c2.67,3.353,7.273,4.674,11.601,3.953c1.386-0.231,2.712-0.721,3.96-1.372
					c0.308-1.37,0.523-2.802,0.651-4.294C215.571,243.483,214.131,244.306,212.524,244.75z"/>
				<path style="fill:#C0C040;" d="M170.387,192.826c0.772-0.374,1.484-0.862,2.137-1.417c0.327-0.279,0.61-0.603,0.932-0.886
					c0.086-0.076,0.176-0.154,0.27-0.227c0.055,0.07,0.107,0.141,0.149,0.22c0.758,1.592,2.257,3.084,3.609,4.178
					c2.808,2.271,6.421,3.683,10.071,3.309c3.229-0.331,6.268-1.825,8.365-4.251c2.873,3.608,8.265,4.86,12.649,3.591
					c0.151-0.044,0.293-0.106,0.441-0.155c-0.288-1.022-0.581-2.048-0.88-3.076c-3.98,1.388-9.001,0.033-10.758-4.024
					c-0.469-1.082-2.203-0.966-2.708,0c-1.85,3.538-5.959,5.438-9.879,4.773c-1.999-0.339-3.896-1.264-5.454-2.554
					c-0.784-0.65-1.514-1.398-2.129-2.21c-0.548-0.724-0.949-1.578-1.643-2.178c-1.79-1.545-3.469-0.072-4.798,1.205
					c-1.424,1.368-3.386,2.101-5.352,2.096c-1.148-0.003-2.247-0.26-3.248-0.735c-0.248,0.819-0.492,1.637-0.733,2.456
					C164.223,194.32,167.576,194.187,170.387,192.826z"/>
				<path style="fill:#C0C040;" d="M161.754,220.825c2.597,1.153,5.225,0.672,7.65-0.633c1.875-1.009,3.528-2.431,5.45-3.329
					c1.561,4.432,5.604,8,10.291,8.702c4.714,0.706,9.424-1.279,12.365-4.912c5.084,3.709,11.849,5.005,17.913,3.329
					c-0.184-0.994-0.388-2.043-0.609-3.132c-5.671,1.649-12.084,0.251-16.566-3.633c-0.803-0.696-1.937-0.436-2.461,0.445
					c-2.059,3.462-6.333,5.545-10.334,4.821c-4.115-0.745-7.284-4.067-8.159-8.097c-0.179-0.826-1.196-1.165-1.915-0.963
					c-2.266,0.636-4.14,2.039-6.054,3.348c-1.877,1.284-3.982,2.486-6.298,1.602c-2.382-0.909-4.101-3.199-5.523-5.205
					c-0.373-0.526-0.712-1.076-1.039-1.636c-0.281,1.178-0.55,2.331-0.805,3.455C157.243,217.292,159.146,219.668,161.754,220.825z"
					/>
				<path style="fill:#C0C040;" d="M173.993,171.872c3.262,0.642,6.766-0.519,8.99-2.936c3.226,4.738,9.402,6.889,15.022,5.608
					c1.141-0.26,2.254-0.657,3.321-1.158c-0.368-0.984-0.739-1.954-1.113-2.907c-1.208,0.593-2.499,1.016-3.823,1.229
					c-4.895,0.788-9.932-1.766-12.002-6.287c-0.444-0.97-2.085-0.95-2.536,0c-1.324,2.791-4.561,4.418-7.603,3.681
					c-1.474-0.357-2.719-1.283-3.723-2.396c-0.357,0.85-0.713,1.719-1.066,2.603C170.706,170.563,172.234,171.526,173.993,171.872z"
					/>
			</g>
		</g>
		<path style="fill:#FFFFFF;" d="M216.995,113.467c-0.971-2.999-3.821-3.499-6.535-3.232c0.162-1.463-0.134-2.954-0.878-4.299
			c-1.224-2.215-3.488-3.501-5.967-3.749c-4.317-0.43-7.86,2.38-9.55,6.084c-0.934-0.617-2.119-0.904-3.25-0.738
			c-1.953,0.286-3.284,1.778-4.043,3.517c-0.951-0.622-2.107-0.878-3.318-0.506c-1.219,0.374-2.171,1.439-2.521,2.654
			c-0.798-0.15-1.61-0.142-2.381,0.215c-1.056,0.488-1.902,1.558-1.903,2.759c-0.002,3.131,3.895,2.812,5.987,2.769
			c3.229-0.066,6.458-0.137,9.687-0.212c1.547-0.036,3.094-0.073,4.641-0.111c0.807-0.02,1.614-0.04,2.422-0.06
			c0.094-0.002,0.179-0.008,0.264-0.015c0.732,0.002,1.464,0.007,2.196,0.008c1.896,0.003,3.792,0.008,5.688,0.008
			c1.684,0,3.409,0.106,5.087-0.055c1.279-0.122,2.638-0.431,3.559-1.398C217.112,116.127,217.411,114.75,216.995,113.467z"/>
		<path style="fill:#FFFFFF;" d="M302.48,118.27c0.822-2.539,3.235-2.962,5.533-2.737c-0.137-1.239,0.114-2.501,0.743-3.64
			c1.036-1.875,2.953-2.965,5.052-3.174c3.655-0.364,6.654,2.015,8.085,5.151c0.791-0.522,1.794-0.766,2.752-0.625
			c1.654,0.243,2.781,1.505,3.423,2.978c0.805-0.527,1.784-0.743,2.809-0.428c1.032,0.317,1.838,1.219,2.134,2.247
			c0.676-0.127,1.363-0.12,2.016,0.182c0.894,0.413,1.61,1.319,1.611,2.336c0.002,2.651-3.297,2.381-5.069,2.344
			c-2.734-0.056-5.468-0.116-8.201-0.179c-1.31-0.03-2.62-0.062-3.93-0.094c-0.683-0.017-1.367-0.034-2.05-0.051
			c-0.08-0.002-0.152-0.007-0.223-0.013c-0.62,0.002-1.24,0.006-1.86,0.007c-1.605,0.003-3.211,0.007-4.816,0.007
			c-1.426,0-2.886,0.089-4.307-0.046c-1.082-0.103-2.233-0.365-3.013-1.184C302.382,120.521,302.128,119.356,302.48,118.27z"/>
		<path style="fill:#FFFFFF;" d="M305.259,156.937c-0.823-1.655-2.626-2.61-4.376-2.371c-0.185-4.354-3.383-8.417-8.052-8.569
			c-2.46-0.08-5.034,0.964-6.618,2.871c-1.39,1.673-1.825,3.691-1.84,5.757c-1.149-0.477-2.417-0.565-3.591,0.061
			c-0.758,0.404-1.365,1.077-1.719,1.851c-0.225-0.041-0.452-0.07-0.684-0.072c-1.497-0.015-2.779,0.793-3.867,1.748
			c-1.025,0.899-2.08,2.119-1.756,3.59c0.276,1.254,1.394,1.997,2.593,2.236c1.516,0.301,3.151,0.13,4.686,0.101
			c0.323-0.006,0.647-0.023,0.97-0.03c0.801,0.007,1.601,0.007,2.396,0.023c2.98,0.058,5.954,0.018,8.933-0.05
			c6.024-0.138,12.045-0.385,18.06-0.734c0.717-0.042,1.5-0.622,1.428-1.427C311.527,158.657,308.325,156.357,305.259,156.937z"/>
		<path style="fill:#FFFFFF;" d="M136.622,168.224c0.713-1.435,2.276-2.262,3.793-2.055c0.161-3.774,2.932-7.295,6.979-7.428
			c2.133-0.07,4.364,0.835,5.737,2.488c1.204,1.451,1.582,3.199,1.595,4.99c0.996-0.413,2.095-0.489,3.113,0.053
			c0.657,0.35,1.183,0.933,1.49,1.604c0.195-0.035,0.392-0.06,0.593-0.062c1.298-0.013,2.409,0.688,3.352,1.515
			c0.888,0.779,1.803,1.837,1.522,3.112c-0.24,1.087-1.208,1.731-2.248,1.938c-1.314,0.261-2.731,0.113-4.061,0.087
			c-0.28-0.005-0.561-0.02-0.841-0.026c-0.694,0.006-1.387,0.007-2.076,0.02c-2.583,0.05-5.161,0.016-7.743-0.043
			c-5.221-0.12-10.44-0.334-15.654-0.636c-0.621-0.036-1.3-0.539-1.237-1.237C131.189,169.715,133.964,167.722,136.622,168.224z"/>
		<g>
			<rect x="308.889" y="250.546" style="fill:#442325;" width="12.287" height="34.468"/>
			<path style="fill:#C0C040;" d="M346.749,224.376c-3.524-22.025-19.823-80.611-31.716-80.611
				c-11.893,0-28.192,58.587-31.716,80.611c-3.524,22.025,0.44,37.883,31.716,37.883S350.273,246.402,346.749,224.376z"/>
			<g>
				<path style="fill:#878E28;" d="M343.254,242.114c-3.643,1.008-8.744-0.094-10.318-3.935c-0.502-1.224-2.213-1.708-2.971-0.388
					c-2.131,3.706-6.243,6.028-10.537,5.776c-4.177-0.244-7.84-3.041-9.576-6.768c-0.427-0.918-1.833-1.01-2.483-0.32
					c-3.902,4.147-8.721,9.035-14.981,7.833c-4.366-0.839-7.46-3.611-10.109-6.856c0.042,1.482,0.158,2.914,0.353,4.291
					c2.579,2.678,5.711,4.735,9.404,5.456c6.605,1.29,11.733-2.591,16.108-6.983c2.49,3.769,6.743,6.274,11.284,6.554
					c4.516,0.278,8.944-1.821,11.839-5.227c2.699,3.389,7.352,4.725,11.727,3.995c1.401-0.234,2.741-0.729,4.003-1.387
					c0.311-1.385,0.529-2.833,0.658-4.34C346.334,240.833,344.878,241.665,343.254,242.114z"/>
				<path style="fill:#878E28;" d="M300.66,189.628c0.78-0.378,1.5-0.872,2.16-1.433c0.331-0.281,0.617-0.609,0.942-0.896
					c0.087-0.077,0.178-0.156,0.272-0.229c0.056,0.071,0.108,0.143,0.151,0.222c0.766,1.61,2.282,3.118,3.648,4.223
					c2.838,2.296,6.49,3.723,10.18,3.345c3.264-0.334,6.336-1.845,8.455-4.297c2.904,3.648,8.355,4.913,12.786,3.63
					c0.153-0.044,0.296-0.107,0.446-0.156c-0.291-1.033-0.588-2.07-0.89-3.109c-4.024,1.403-9.099,0.034-10.875-4.068
					c-0.474-1.094-2.227-0.977-2.737,0c-1.87,3.576-6.023,5.497-9.986,4.824c-2.021-0.343-3.939-1.278-5.513-2.582
					c-0.793-0.657-1.53-1.413-2.152-2.234c-0.554-0.732-0.959-1.595-1.661-2.201c-1.809-1.562-3.506-0.073-4.85,1.218
					c-1.439,1.383-3.422,2.124-5.41,2.119c-1.16-0.003-2.271-0.263-3.283-0.743c-0.25,0.828-0.497,1.655-0.741,2.482
					C294.43,191.138,297.819,191.004,300.66,189.628z"/>
				<path style="fill:#878E28;" d="M291.934,217.93c2.625,1.165,5.281,0.679,7.733-0.64c1.895-1.02,3.566-2.457,5.509-3.365
					c1.578,4.48,5.665,8.086,10.402,8.796c4.765,0.714,9.525-1.293,12.499-4.965c5.139,3.749,11.978,5.059,18.107,3.365
					c-0.186-1.005-0.393-2.065-0.616-3.166c-5.733,1.667-12.215,0.253-16.746-3.673c-0.811-0.703-1.958-0.441-2.488,0.449
					c-2.082,3.499-6.401,5.605-10.446,4.874c-4.159-0.753-7.363-4.111-8.247-8.185c-0.181-0.835-1.209-1.177-1.936-0.973
					c-2.291,0.643-4.185,2.061-6.12,3.384c-1.897,1.298-4.025,2.513-6.366,1.62c-2.408-0.919-4.145-3.234-5.582-5.261
					c-0.377-0.532-0.72-1.088-1.051-1.654c-0.284,1.191-0.556,2.356-0.813,3.493C287.375,214.358,289.298,216.76,291.934,217.93z"/>
				<path style="fill:#878E28;" d="M304.306,168.447c3.298,0.649,6.839-0.525,9.087-2.968c3.261,4.789,9.504,6.963,15.184,5.669
					c1.154-0.263,2.278-0.664,3.357-1.171c-0.372-0.995-0.747-1.975-1.125-2.938c-1.221,0.599-2.526,1.027-3.864,1.243
					c-4.948,0.797-10.039-1.785-12.132-6.355c-0.449-0.981-2.108-0.961-2.564,0c-1.339,2.821-4.611,4.466-7.685,3.721
					c-1.49-0.361-2.748-1.296-3.763-2.422c-0.361,0.859-0.72,1.738-1.078,2.632C300.983,167.123,302.527,168.097,304.306,168.447z"
					/>
			</g>
		</g>
		<g>
			<rect x="207.495" y="159.122" style="fill:#D28F5E;" width="18.908" height="40.655"/>
			<path style="fill:#AF6431;" d="M226.403,168.588c-1.06,0-2.121,0.001-3.181,0.001c-3.601,0.001-7.201,0.003-10.802,0.004
				c0.005-0.238,0.005-0.474,0.015-0.681c0.033-0.642,0.051-1.283,0.044-1.926c-0.007-0.643-0.026-1.284-0.057-1.926
				c-0.016-0.335-0.052-0.665-0.093-0.998c-0.025-0.204-0.058-0.401-0.113-0.593l8.539,0.003c1.882,0.001,3.765,0.002,5.647,0.002
				v-1.389c-0.656,0-1.311,0-1.967,0.001c0.02-0.653-0.003-1.308-0.03-1.963h-1.136c-0.012,0.655-0.023,1.31-0.008,1.964h-0.04
				c-5.242,0.002-10.485,0.004-15.727,0.005v1.376l3.999,0.001c-0.051,0.239-0.038,0.492-0.045,0.736
				c-0.01,0.333-0.013,0.665-0.012,0.998c0.003,0.666-0.007,1.332-0.031,1.997c-0.023,0.666-0.041,1.331-0.076,1.997
				c-0.006,0.124-0.004,0.261-0.005,0.397l-3.831,0.001v1.376l4.08,0.001c0.03,0.006,0.059,0.016,0.088,0.016
				c0.02,0.001,0.04,0.001,0.061,0.002c0.024,0.001,0.044-0.015,0.068-0.018l8.965,0.003c0.865,0,1.729,0.001,2.593,0.001
				c-0.013,0.292,0.018,0.597,0.02,0.837c0.007,0.631,0.026,1.261,0.019,1.892c-0.013,1.097-0.078,2.191-0.158,3.285
				c-0.045,0.025-0.087,0.059-0.117,0.102c-5.206,0.002-10.412,0.004-15.619,0.005v1.377l4.21,0.001
				c-0.001,0.111-0.001,0.221-0.002,0.328c-0.002,0.345,0.019,0.69,0.026,1.035c0.016,0.739,0.015,1.478,0.02,2.217
				c0.005,0.708,0.024,1.425-0.053,2.13c-0.01,0.095-0.041,0.247-0.067,0.415c-1.378,0.001-2.757,0.001-4.135,0.001v1.376
				l13.261,0.005c0.57,0,1.141,0.001,1.711,0.001c-0.1,0.484-0.072,1.018-0.094,1.501c-0.029,0.612-0.038,1.225-0.053,1.837
				c-0.014,0.59-0.029,1.18-0.043,1.769c-0.008,0.343-0.043,0.687,0.008,1.009c-4.93,0.002-9.859,0.003-14.789,0.005v1.376
				l3.875,0.001c-0.001,0.34,0.039,0.689,0.049,1.003c0.022,0.656,0.044,1.313,0.073,1.969c0.029,0.656,0.054,1.313,0.073,1.97
				c0.009,0.303,0.017,0.606,0.024,0.91c0.002,0.089,0.002,0.181,0.001,0.272c-1.365,0-2.73,0.001-4.095,0.001v1.167h18.908v-1.174
				c-1.06,0.001-2.121,0.001-3.181,0.001c-3.503,0.001-7.005,0.003-10.508,0.004c-0.006-0.401-0.054-0.812-0.068-1.181
				c-0.026-0.657-0.056-1.314-0.092-1.97c-0.036-0.658-0.088-1.313-0.151-1.969c-0.029-0.299-0.033-0.658-0.076-1.003l8.428,0.003
				c1.882,0.001,3.765,0.001,5.647,0.002v-1.39c-1.025,0-2.05,0.001-3.075,0.001c0.058-0.299,0.031-0.635,0.035-0.941
				c0.008-0.59,0.017-1.18,0.025-1.769c0.008-0.59,0.024-1.18,0.02-1.769c-0.004-0.524,0.05-1.109-0.042-1.637l3.038,0.001v-1.389
				c-1.06,0-2.121,0.001-3.181,0.001c-3.509,0.001-7.019,0.002-10.528,0.004c0.016-0.144,0.028-0.287,0.04-0.415
				c0.07-0.706,0.052-1.421,0.044-2.13c-0.008-0.74-0.044-1.479-0.086-2.217c-0.019-0.344-0.03-0.691-0.068-1.035
				c-0.011-0.103-0.021-0.215-0.034-0.328l8.165,0.003c1.882,0.001,3.765,0.001,5.647,0.002v-1.389c-0.694,0-1.388,0-2.082,0.001
				c0.094-1.126,0.135-2.257,0.128-3.387c-0.003-0.607-0.016-1.216-0.048-1.822c-0.016-0.304-0.059-0.606-0.098-0.907
				c0.7,0.001,1.4,0.001,2.1,0.001V168.588z"/>
			<path style="fill:#442325;" d="M227.834,164.53h-21.771c-2.073,0-3.754-1.681-3.754-3.754v-2.034
				c0-2.073,1.681-3.754,3.754-3.754h21.771c2.073,0,3.754,1.681,3.754,3.754v2.034C231.588,162.85,229.907,164.53,227.834,164.53z"
				/>
			<path style="fill:#442325;" d="M249.601,166.89l64.328,62.045c0.885,0.854,2.067,1.331,3.296,1.331h1.655
				c4.272,0,6.371-5.2,3.296-8.166l-70.326-67.829c-1.256-1.211-3.245-1.211-4.501,0l-70.326,67.829
				c-3.075,2.965-0.975,8.166,3.296,8.166h1.656c1.23,0,2.411-0.477,3.296-1.331L249.601,166.89z"/>
			<polygon style="fill:#D28F5E;" points="249.601,166.89 198.362,216.31 198.362,274.214 300.84,274.214 300.84,216.31 			"/>
			<g>
				<path style="fill:#AF6431;" d="M300.84,261.209c-3.662,0.001-7.324,0.003-10.986,0.004c-4.742,0.002-9.484,0.004-14.227,0.005
					c-0.008-0.542-0.072-1.1-0.092-1.599c-0.035-0.889-0.076-1.779-0.124-2.667c-0.048-0.891-0.119-1.778-0.204-2.666
					c-0.039-0.405-0.045-0.891-0.103-1.359l11.411,0.004c4.775,0.002,9.55,0.004,14.325,0.005v-1.886
					c-3.614,0.001-7.229,0.003-10.843,0.004c0.078-0.405,0.041-0.861,0.047-1.274c0.012-0.799,0.023-1.597,0.034-2.396
					c0.011-0.798,0.033-1.597,0.027-2.396c-0.005-0.71,0.067-1.501-0.057-2.216l10.792,0.004v-1.886
					c-3.662,0.001-7.324,0.003-10.986,0.004c-4.751,0.002-9.503,0.003-14.254,0.005c0.022-0.195,0.037-0.388,0.055-0.562
					c0.095-0.956,0.07-1.924,0.059-2.883c-0.012-1.001-0.06-2.003-0.116-3.002c-0.026-0.466-0.04-0.936-0.091-1.4
					c-0.015-0.14-0.029-0.291-0.045-0.444l11.054,0.004c4.775,0.002,9.55,0.004,14.325,0.005v-1.886
					c-3.166,0.001-6.332,0.002-9.498,0.003c0.128-1.525,0.182-3.055,0.174-4.586c-0.004-0.822-0.021-1.646-0.065-2.467
					c-0.022-0.411-0.08-0.82-0.133-1.228c3.174,0.001,6.348,0.002,9.522,0.004v-1.886c-3.662,0.001-7.324,0.003-10.986,0.004
					c-4.875,0.002-9.75,0.004-14.625,0.005c0.007-0.323,0.006-0.642,0.021-0.922c0.044-0.869,0.069-1.737,0.06-2.607
					c-0.009-0.87-0.035-1.739-0.078-2.608c-0.022-0.454-0.07-0.901-0.125-1.352c-0.034-0.277-0.078-0.543-0.153-0.803l11.562,0.004
					c3.388,0.001,6.775,0.002,10.163,0.004l-1.951-1.882c-1.076,0.001-2.152,0.001-3.229,0.001c0.031-1.055-0.013-2.116-0.061-3.174
					l-1.493-1.441c0,0.11-0.002,0.22-0.003,0.33c-0.003,1.425-0.066,2.859-0.033,4.285h-0.054
					c-8.802,0.003-17.605,0.006-26.407,0.01c-1.555,0.001-3.11,0.001-4.665,0.001c0.012-1.414-0.008-2.827-0.099-4.24
					c-0.055-0.852-0.117-1.705-0.209-2.555c-0.05-0.469-0.084-1.004-0.179-1.509l27.846,0.009l-1.944-1.875
					c-3.211,0.001-6.423,0.002-9.634,0.003c0.025-0.077,0.068-0.141,0.077-0.23c0.045-0.415,0.056-0.838,0.074-1.255
					c0.038-0.837,0.051-1.676,0.041-2.514c-0.01-0.84-0.045-1.676-0.126-2.513c-0.04-0.418-0.087-0.836-0.139-1.253
					c-0.023-0.181-0.034-0.359-0.068-0.526c0.394,0,0.788,0,1.182,0l-1.936-1.868l-10.221,0.004
					c-1.747,0.001-3.493,0.001-5.24,0.002c-0.004-0.29-0.02-0.58-0.015-0.841c0.017-0.943,0.034-1.886,0.051-2.83
					c0.017-0.944,0.038-1.886,0.02-2.83c-0.011-0.592-0.002-1.236-0.2-1.803l7.005,0.002l-1.929-1.86l-22.857,0.008
					c0.03-0.445-0.025-0.917-0.034-1.322c-0.016-0.792-0.023-1.584-0.021-2.376c0-0.109,0.002-0.219,0.003-0.328l-1.395,1.345
					c-0.001,0.453-0.006,0.906-0.001,1.359c0.004,0.428-0.023,0.887,0.03,1.322l-2.808,0.001l-1.908,1.841l22.727,0.008
					c0.141,0.669,0.116,1.313,0.074,1.998c-0.051,0.813-0.066,1.626-0.088,2.439c-0.022,0.814-0.043,1.627-0.065,2.44
					c-0.01,0.39-0.021,0.781-0.031,1.171c-0.002,0.085-0.002,0.171-0.001,0.256c-10.415,0.004-20.83,0.007-31.245,0.011
					l-1.901,1.833c5.01,0.002,10.021,0.003,15.031,0.005c-0.003,0.052-0.005,0.106-0.009,0.155c-0.03,0.421-0.036,0.845-0.054,1.266
					c-0.039,0.922-0.078,1.844-0.117,2.766c-0.037,0.884-0.095,1.769-0.104,2.654c-0.003,0.35-0.04,0.617-0.122,0.952
					c-0.044,0.179-0.042,0.363,0.017,0.523c-7.76,0.003-15.519,0.005-23.279,0.008l-1.893,1.826
					c2.944,0.001,5.888,0.002,8.832,0.003c-0.002,0.279,0.001,0.556-0.012,0.819c-0.043,0.895-0.073,1.79-0.09,2.685
					c-0.031,1.582-0.039,3.251,0.217,4.824c-3.019,0.001-6.039,0.002-9.058,0.003c-2.842-0.023-5.688-0.01-8.533,0.003l-1.886,1.819
					c0.602,0,1.204,0,1.806,0.001c0.64,0.003,1.28-0.002,1.92,0.001c-0.078,0.815-0.016,1.659-0.008,2.475
					c0.009,0.903,0.018,1.807,0.027,2.71c0.009,0.87,0.037,1.74,0.059,2.61c0.004,0.179,0,0.362-0.003,0.545
					c-0.664,0.002-1.328-0.002-1.993,0.001c-2.001,0.001-4.002,0.001-6.003,0.002v1.815c2,0.001,4.001,0.001,6.001,0.002
					c0.833,0.004,1.666-0.002,2.5,0.001c0.143,0.088,0.323,0.076,0.473,0c1.881,0.006,3.762,0.017,5.641,0.002l9.099,0.003
					c-0.078,0.694-0.062,1.41-0.086,2.104c-0.027,0.783-0.051,1.566-0.074,2.348c-0.023,0.783-0.052,1.565-0.088,2.347
					c-0.022,0.485-0.09,1.013-0.103,1.528c-2.916,0.001-5.832,0.002-8.749,0.003c-2.868-0.023-5.741-0.01-8.611,0.003
					c-2.001,0.001-4.002,0.001-6.003,0.002v1.815c2,0.001,4.001,0.001,6.001,0.002c0.608,0.003,1.215-0.002,1.824,0.001
					c-0.034,0.59,0.008,1.198,0.009,1.774c0.002,0.885,0.018,1.769,0.008,2.654c-0.009,0.852-0.031,1.704-0.064,2.556
					c-0.016,0.414-0.093,0.892-0.097,1.355c-0.56,0.002-1.119-0.002-1.679,0.001c-2.001,0.001-4.002,0.001-6.003,0.002v1.816
					c2,0.001,4.001,0.001,6.001,0.002c2.871,0.013,5.744,0.026,8.613,0.003l9.344,0.003c-0.1,0.621-0.03,1.34-0.02,1.864
					c0.017,0.971,0.01,1.941,0.004,2.912c-0.006,0.971-0.011,1.942-0.041,2.913c-0.006,0.191-0.028,0.41-0.048,0.638l-9.239,0.003
					c-2.868-0.023-5.741-0.01-8.611,0.003c-2.001,0.001-4.002,0.001-6.003,0.002v1.815c2,0.001,4.001,0.001,6.001,0.002
					c0.833,0.004,1.665-0.002,2.498,0.001c0.061,1.65,0.049,3.303-0.029,4.952c-0.043,0.904-0.112,1.807-0.205,2.708
					c-0.019,0.182-0.068,0.429-0.089,0.679c-0.725,0.003-1.449-0.003-2.173,0.001c-2.001,0.001-4.002,0.001-6.003,0.002v1.815
					c2,0.001,4.001,0.001,6.001,0.002c2.871,0.013,5.744,0.026,8.613,0.003l9.473,0.003c-0.022,0.403,0.027,0.83,0.043,1.166
					c0.033,0.73,0.067,1.461,0.1,2.191c0.032,0.692,0.079,1.385,0.065,2.078c-0.014,0.667-0.272,1.399-0.093,2.05
					c0.121,0.44,0.624,0.51,0.943,0.249c0.562-0.46,0.582-1.331,0.603-2c0.022-0.739-0.045-1.478-0.095-2.214
					c-0.051-0.757-0.102-1.515-0.154-2.272c-0.026-0.381-0.06-0.757-0.109-1.136c-0.005-0.037-0.009-0.074-0.013-0.111l62.776,0.021
					l1.08,0c-0.002,0.02-0.002,0.04-0.004,0.059c-0.043,0.466-0.061,0.929-0.073,1.397c-0.026,1.031-0.059,2.062-0.077,3.093
					c-0.017,0.998-0.03,1.996-0.046,2.993c-0.011,0.703-0.299,1.867,0.516,2.2c0.234,0.095,0.509-0.028,0.682-0.18
					c0.341-0.301,0.306-0.705,0.312-1.122c0.007-0.465,0.014-0.931,0.021-1.397c0.015-0.965,0.036-1.929,0.042-2.894
					c0.006-0.931,0.009-1.863,0.014-2.794c0.002-0.454-0.009-0.903-0.036-1.356l11.892,0.004V261.209z M286.515,242.771
					c0.772,0,1.544,0.001,2.316,0.001c-0.135,0.655-0.097,1.379-0.128,2.032c-0.039,0.829-0.052,1.658-0.072,2.488
					c-0.019,0.799-0.039,1.597-0.058,2.396c-0.011,0.464-0.059,0.93,0.011,1.367c-8.379,0.003-16.758,0.006-25.137,0.009
					c-13.245,0.004-26.491,0.009-39.736,0.014c-0.004-0.233-0.012-0.454-0.007-0.638c0.025-0.97,0.044-1.943,0.029-2.913
					c-0.015-0.971-0.064-1.943-0.12-2.912c-0.027-0.473-0.06-0.939-0.133-1.407c-0.023-0.15-0.046-0.305-0.075-0.457
					L286.515,242.771z M274.204,222.47c0.027,0.001,0.055,0.002,0.082,0.002c0.032,0.001,0.06-0.02,0.091-0.024l12.137,0.004
					c1.17,0,2.341,0.001,3.511,0.001c-0.017,0.396,0.024,0.809,0.027,1.133c0.01,0.854,0.035,1.707,0.025,2.562
					c-0.017,1.485-0.105,2.967-0.214,4.448c-0.061,0.034-0.118,0.079-0.158,0.138c-8.754,0.003-17.507,0.006-26.26,0.009
					c-13.422,0.005-26.843,0.009-40.265,0.014c0.003-0.103,0.008-0.207,0.013-0.308c0.022-0.407,0.042-0.813,0.06-1.22
					c0.035-0.782,0.065-1.565,0.088-2.347c0.023-0.783,0.034-1.565,0.029-2.348c-0.005-0.69,0.031-1.411-0.045-2.104l50.757,0.017
					C274.124,222.456,274.165,222.469,274.204,222.47z M273.975,212.288c-0.069,0.324-0.052,0.665-0.061,0.996
					c-0.013,0.451-0.018,0.9-0.016,1.352c0.004,0.902-0.01,1.803-0.042,2.704c-0.032,0.901-0.056,1.802-0.103,2.703
					c-0.009,0.168-0.006,0.354-0.007,0.537l-10.301,0.004c-8.104,0.003-16.208,0.005-24.311,0.008
					c0.028-1.458-0.016-2.923-0.067-4.379c-0.028-0.802-0.097-1.603-0.165-2.403c-0.039-0.464-0.023-1.038-0.147-1.534
					L273.975,212.288z M239.832,198.533c0.029-0.854,0.032-1.711,0.048-2.565c0.016-0.863,0.033-1.726,0.049-2.589
					c0.008-0.421,0.028-0.844,0.024-1.266c0-0.051,0-0.103,0-0.155c11.096,0.004,22.192,0.008,33.289,0.011
					c-0.021,0.229,0.015,0.468,0.03,0.705c0.026,0.418,0.047,0.836,0.062,1.254c0.027,0.778,0.057,1.556,0.064,2.334
					c0.007,0.779-0.007,1.557-0.041,2.335c-0.018,0.418-0.061,0.837-0.073,1.255c-0.005,0.156,0.026,0.281,0.055,0.41
					c-3.297,0.001-6.594,0.002-9.891,0.003l-23.984,0.008C239.807,199.796,239.812,199.109,239.832,198.533z M223.272,207.904
					c0.019-0.896,0.055-1.791,0.076-2.687c0.021-0.895,0.056-1.79,0.102-2.685c0.007-0.135,0.013-0.277,0.016-0.42l33.605,0.011
					c-0.007,0.572,0.082,1.175,0.116,1.706c0.053,0.818,0.095,1.637,0.122,2.456c0.046,1.38,0.066,2.761,0.061,4.142
					c-11.399,0.004-22.797,0.007-34.196,0.012C223.26,209.596,223.254,208.753,223.272,207.904z M212.976,220.601
					c-1.69-0.014-3.383-0.002-5.075,0.002c-0.014-0.224-0.033-0.443-0.038-0.645c-0.021-0.87-0.036-1.74-0.069-2.61
					c-0.033-0.87-0.067-1.74-0.1-2.61c-0.032-0.82-0.031-1.658-0.134-2.474c1.806,0.005,3.613,0.016,5.417,0.002l24.625,0.008
					c-0.012,0.167-0.003,0.338,0.003,0.518c0.013,0.4,0.023,0.8,0.032,1.201c0.016,0.77,0.019,1.541,0.043,2.311
					c0.044,1.429,0.034,2.858,0.052,4.287C229.479,220.596,221.227,220.598,212.976,220.601z M212.976,240.92
					c-1.785-0.014-3.571-0.003-5.358,0.002c0.03-0.421,0.005-0.856,0.014-1.256c0.02-0.852,0.028-1.704,0.025-2.556
					c-0.004-0.852-0.014-1.705-0.047-2.556c-0.025-0.623-0.02-1.319-0.114-1.97c1.828,0.005,3.656,0.017,5.481,0.002l61.285,0.021
					c-0.002,0.15-0.001,0.3-0.002,0.444c-0.003,0.466,0.025,0.934,0.035,1.4c0.021,1,0.02,2.001,0.027,3.002
					c0.007,0.958,0.032,1.929-0.072,2.883c-0.014,0.128-0.055,0.334-0.09,0.562c-3.571,0.001-7.142,0.002-10.713,0.004
					L212.976,240.92z M263.447,261.222c-16.824,0.005-33.647,0.011-50.471,0.017c-1.659-0.014-3.319-0.002-4.979,0.002
					c0.039-0.247,0.059-0.493,0.078-0.678c0.094-0.9,0.162-1.804,0.205-2.708c0.079-1.652,0.039-3.302-0.074-4.951
					c1.591,0.003,3.181,0.015,4.77,0.002l9.606,0.003c0.042,0.041,0.077,0.086,0.128,0.121c0.106,0.072,0.249,0.056,0.355,0
					c0.061-0.032,0.105-0.079,0.155-0.12l50.586,0.017c-0.001,0.461,0.052,0.932,0.067,1.359c0.029,0.889,0.059,1.777,0.098,2.666
					c0.04,0.889,0.073,1.778,0.099,2.667c0.012,0.411,0.023,0.821,0.032,1.232c0.003,0.121,0.002,0.244,0.002,0.368
					C270.552,261.219,266.999,261.221,263.447,261.222z"/>
				<path style="fill:#AF6431;" d="M252.609,169.79c-2.006,0.001-4.012,0.002-6.018,0.002l-1.916,1.848
					c3.285,0.001,6.57,0.002,9.855,0.003L252.609,169.79z"/>
			</g>
			<path style="fill:#442325;" d="M247.929,188.583l-6.424,11.126c-0.743,1.287,0.186,2.897,1.672,2.897h12.847
				c1.487,0,2.416-1.609,1.672-2.897l-6.424-11.126C250.53,187.296,248.672,187.296,247.929,188.583z"/>
			<path style="fill:#442325;" d="M260.354,274.214h-20.622c-2.241,0-4.057-1.816-4.057-4.057v-45.481
				c0-2.241,1.816-4.057,4.057-4.057h20.622c2.241,0,4.057,1.816,4.057,4.057v45.481
				C264.411,272.397,262.595,274.214,260.354,274.214z"/>
			<circle style="fill:#442325;" cx="217.179" cy="232.814" r="10.737"/>
			<circle style="fill:#B9DEFE;" cx="217.179" cy="232.814" r="7.591"/>
			<circle style="fill:#442325;" cx="283.157" cy="232.814" r="10.737"/>
			<circle style="fill:#B9DEFE;" cx="283.157" cy="232.814" r="7.798"/>
			<path style="fill:#D28F5E;" d="M262.536,246.913c0,1.155-0.936,2.091-2.091,2.091c-1.155,0-2.091-0.936-2.091-2.091
				c0-1.155,0.936-2.091,2.091-2.091C261.6,244.822,262.536,245.758,262.536,246.913z"/>
		</g>
		<path style="fill:#C0C040;" d="M134.871,285.017c24.751,37.23,67.072,61.772,115.129,61.772s90.378-24.542,115.129-61.772
			C330.003,274.928,291.042,269.29,250,269.29S169.997,274.928,134.871,285.017z"/>
		
			<ellipse transform="matrix(0.7071 -0.7071 0.7071 0.7071 -6.7812 209.585)" style="fill:#FFDB5C;" cx="249.601" cy="112.978" rx="22.306" ry="22.306"/>
		<path style="fill:#878E28;" d="M250,346.789c36.275,0,69.275-13.989,93.924-36.856c-2.091,0.694-4.186,1.379-6.282,2.068
			c-29.182,9.596-58.328,6.053-85.929-6.721c-19.521-9.035-37.437-20.018-59.72-20.26c-15.04-0.163-28.045,2.969-41.848,8.792
			c-2.116,0.893-4.39,1.789-6.689,2.744C168.797,327.228,207.107,346.789,250,346.789z"/>
	</g>
</g>
<g id="TEXTS">
	
		<text transform="matrix(1 0 0 1 92.9102 397.3604)" style="fill:#442325; font-family:'Montserrat-Black'; font-size:57.1448px; letter-spacing:2;">COTTAGE</text>
	
		<text transform="matrix(1 0 0 1 128.9033 424.3426)" style="fill:#AF6431; font-family:'Quicksand-Bold'; font-size:25.9449px; letter-spacing:5;">TAGLINE HERE</text>
</g>
</svg>
